<?xml version="1.0" encoding="utf-8"?>
<!-- Generator: Adobe Illustrator 25.4.1, SVG Export Plug-In . SVG Version: 6.00 Build 0)  -->
<svg version="1.1" id="_x34_57bf273-24a3-4fd8-a857-e9b918267d6a"
	 xmlns="http://www.w3.org/2000/svg" xmlns:xlink="http://www.w3.org/1999/xlink" x="0px" y="0px" viewBox="0 0 698 698"
	 style="enable-background:new 0 0 698 698;" xml:space="preserve">
<style type="text/css">
	.st0{opacity:0.5;}
	.st1{fill:url(#SVGID_1_);}
	.st2{fill:#F5F5F5;}
	.st3{fill:#007CFF;}
</style>
<g class="st0">
	
		<linearGradient id="SVGID_1_" gradientUnits="userSpaceOnUse" x1="349" y1="2" x2="349" y2="700" gradientTransform="matrix(1 0 0 -1 0 700)">
		<stop  offset="0" style="stop-color:#808080;stop-opacity:0.25"/>
		<stop  offset="0.54" style="stop-color:#808080;stop-opacity:0.12"/>
		<stop  offset="1" style="stop-color:#808080;stop-opacity:0.1"/>
	</linearGradient>
	<circle class="st1" cx="349" cy="349" r="349"/>
</g>
<circle class="st2" cx="349.7" cy="346.8" r="341.6"/>
<g>
	<g>
		<path class="st3" d="M478.8,91.3l7.1,2.6l-5.3-5.2c-1.4-1.4-2.9-2.8-4.3-4.1l-0.3-0.3l-0.4-0.2c-36.4-13.5-79.9-33.8-129.4-60.2
			l-0.4-0.2l-0.5,0c-1.8-0.1-3.6-0.2-5.4-0.3l-6.8-0.2l6.2,3.3C393.2,55.5,440.1,77.3,478.8,91.3z"/>
		<path class="st3" d="M501.8,117.3l5.7,2.3l-3.5-4.7c-0.9-1.2-1.9-2.4-2.9-3.7l-0.4-0.4l-0.5-0.2c-50.4-20.9-113.7-49.5-188.1-84.9
			l-0.7-0.3l-0.7,0.1c-1.2,0.2-2.5,0.5-3.7,0.7l-4.6,1l4.5,2.2C384.7,66.4,450.3,96,501.8,117.3z"/>
		<path class="st3" d="M522,146.7l5.5,2.9l-3-5c-0.4-0.7-0.9-1.5-1.4-2.2l-0.6-1l0.1-0.7l-1.2-0.6C478.7,117.5,403,80.7,284.7,33.6
			l-0.8-0.3l-0.7,0.3c-1,0.4-2,0.8-3,1.2l-3.6,1.5l4,1.6C401.9,86.1,478.8,123.7,522,146.7z"/>
		<path class="st3" d="M539.4,179.6l5.4,3.8l-2.6-5.6c-0.6-1.3-1.3-2.7-1.9-4l-0.2-0.5l-0.5-0.3c-50-34.3-139-84.3-279-127.9
			l-0.9-0.3l-0.7,0.4c-0.9,0.5-1.8,1-2.7,1.6l-3.1,1.9l3.9,1.2C399.8,94,489.4,144.8,539.4,179.6z"/>
		<path class="st3" d="M500.6,173.6L500.6,173.6c19,12.9,36.9,26.5,53,40.6l5.1,4.5l-2.1-6c-0.4-1.2-0.9-2.3-1.3-3.5l-0.2-0.5l0-0.5
			l-0.8-0.7c-15.4-13.2-32.4-26.1-50.4-38.3c-51.7-35-139.8-82.5-265.6-110.1l-0.9-0.2l-0.6,0.5c-0.8,0.6-1.6,1.1-2.4,1.7l-3.1,2.2
			l4.2,0.9C361.3,91.5,449.1,138.8,500.6,173.6z"/>
		<path class="st3" d="M239.6,111.9l1.9,0.5l1.1-5.5l-1.9-0.5c-18.7-5-35.6-5.6-46.5-5.3l-0.8,0l-0.5,0.6c-0.6,0.8-1.2,1.6-1.9,2.4
			l-2.3,3l4.3-0.2C203.9,106.4,220.9,106.8,239.6,111.9z"/>
		<path class="st3" d="M499.2,192c23.8,17.7,45.8,36.9,65.4,57.1l4.8,4.9l-1.5-6.1c-0.4-1.5-0.8-3-1.3-4.5l-0.1-0.5l-0.4-0.4
			c-19.1-19.4-40.3-37.8-63.1-54.7c-56.8-42.2-152.4-96.1-284.9-112.5l-0.9-0.1l-0.6,0.5c-0.7,0.6-1.4,1.3-2,2l1.4,1.3c0,0,0,0,0,0
			l-1.5-1.3l-2.6,2.5l4.1,0.5C347.8,96.7,442.8,150,499.2,192z M215.9,79.1L215.9,79.1L215.9,79.1L215.9,79.1z"/>
		<path class="st3" d="M309.2,114.4c66.7,19.6,166.2,62.8,261.1,156.9l4.4,4.4l-1.2-5.5c-0.2-1-0.5-2-0.7-3l-0.2-0.9l0.1-0.6
			L572,265c-95.3-93.5-194.9-136.5-261.7-156.1c-44.5-13-81.9-18.1-105.5-20.1l-0.9-0.1L199,94l4,0.3
			C226.8,96.2,264.5,101.2,309.2,114.4z"/>
		<path class="st3" d="M144.4,302.6l-5.7-3.3l-0.9,1.4c-0.2,0.3-19,30.1-32.8,73.4l-0.1,0.2l0,0.3c0.1,2.4,0.3,4.8,0.5,7.3l0.9,10.5
			l2.9-9.8c13.8-46.2,34-78.2,34.2-78.5L144.4,302.6z"/>
		<path class="st3" d="M152.4,207.9l0.3-1.7l-6.3-1.6l-0.3,1.7c-5.6,34.7-18.3,75.8-41.1,133.1l-0.1,0.2l0,0.2
			c-0.1,2.6-0.2,5.2-0.3,7.8l-0.2,10.8l3.9-9.7C132.9,287.6,146.5,244.2,152.4,207.9z"/>
		<polygon class="st3" points="155.2,286.7 167.7,266 162,262.8 149.5,283.5 		"/>
		<path class="st3" d="M156.2,193.5c5.7-16.5,21.1-25,21.2-25.1l1.6-0.8l-3.8-5l-1.5,0.8c-0.2,0.1-17.1,9.2-23.6,27.8l-0.5,1.6
			l6.1,2.4L156.2,193.5z"/>
		<path class="st3" d="M150,239.3l6.3,1.9l0.4-1.6c3.5-14.8,24.8-32.3,25.7-33l1.3-1.1l-4.6-4.5l-1.3,1.1
			c-1,0.8-23.4,18.7-27.4,35.6L150,239.3z"/>
		<path class="st3" d="M192.4,220.2l1.6-0.9l-4.1-5l-1.5,0.9c-2.7,1.7-26.8,17.4-45.4,55.6l-0.7,1.5l5.9,2.9l0.7-1.5
			C167.7,235.1,192.2,220.3,192.4,220.2z"/>
		<polygon class="st3" points="192,241.8 187.1,237.5 169.4,254.4 174.3,258.7 		"/>
		<path class="st3" d="M208.6,175.1l1.9-0.1l-1.4-5.7l-1.9,0.1c-1.4,0.1-35.1,3-49.4,29.7l-0.8,1.5l5.8,3l0.8-1.5
			C176.7,177.8,207.3,175.2,208.6,175.1z"/>
		<path class="st3" d="M225,140.9l1.9,0.1l-0.5-5.7l-1.9-0.1c-30.9-2.1-50,4-60.5,9.5l-0.7,0.4l0,0.5l-6,10.7l6.7-4.2
			C172.2,146.9,191,138.6,225,140.9z"/>
		<path class="st3" d="M314.2,136.4c67.4,15.4,167.3,55.4,260.9,158.7l4.4,4.8l-1.1-5.9c-0.2-1.4-0.5-2.7-0.8-4l0-0.5l-0.6-0.6
			c-94.3-102.8-194.7-142.7-262.3-158.1c-69.3-15.8-121.9-10.5-136.3-8.6l-0.7,0.1l-0.4,0.5c-0.5,0.7-1,1.4-1.4,2.1l-2.6,3.9
			l4.5-0.7C187.9,126.8,241.6,119.9,314.2,136.4z"/>
		<path class="st3" d="M319.4,152.8c-78-12.4-135.4,4.6-137.9,5.3l-1.8,0.5l2.9,5.4l1.7-0.5c2.4-0.7,58.5-17.3,134.9-5.1
			C387,169.3,487,205.9,579.1,319.2l4.2,5.2l-0.8-6.1c-0.2-1.5-0.4-3-0.7-4.4l-0.1-0.5l-0.3-0.4
			C488.5,200.4,387.7,163.7,319.4,152.8z"/>
		<path class="st3" d="M455.8,217.3c-41.4-24.1-85.7-38.4-131.8-42.6c-78.3-7-135.4,18.5-135.9,18.7l-1.5,0.7l3.4,5.1l1.6-0.7
			c0.6-0.3,56.5-25,132.7-18.2c67.9,6,167.7,39.2,257.9,162.7l4.2,5.7l-0.7-6.4c-0.2-1.6-0.3-3.1-0.5-4.7l-0.1-0.5l-0.3-0.4
			C546.2,285,502.8,244.7,455.8,217.3z"/>
		<path class="st3" d="M393.8,206.1c-108.1-29.8-198.2,22.2-199.1,22.7l-1.5,0.9l4,4.9l1.5-0.9c0.9-0.5,88.9-51.2,194-22.2
			c72.5,20,137,72.4,191.5,155.5l4.1,6.3l-0.6-6.9c-0.1-1.5-0.3-3.1-0.4-4.6l0-0.5l-0.4-0.5C532.1,278.4,467.1,226.3,393.8,206.1z"
			/>
		<path class="st3" d="M190.1,273.7c65.6-55.3,180.5-77.6,289.6-3c56.8,38.8,76.5,75.7,99.4,118.4c2.2,4,4.4,8.2,6.7,12.3l3.7,6.8
			l-0.1-7.2c0-1.7-0.1-3.4-0.1-5l0-0.5l-0.2-0.5c-1.4-2.7-2.9-5.3-4.3-7.9c-23.3-43.5-43.5-81.1-101.7-120.9
			c-112.2-76.8-230.4-53.9-297.8,2.9c-61.5,51.9-71.7,123.3-72.2,161.2l0,0.4c0.9,3.8,1.7,7.6,2.7,11.4l3.8,0
			C117.6,374.6,143.3,313.2,190.1,273.7z"/>
		<path class="st3" d="M416.1,499.8c-6.4-27.2-11.2-30.8-15.5-30.7c-10.8,0.1-7.5,34.6-7.4,34.9c1.9,18.7,78.6,75.4,111.4,99
			l1.5,1.1l3.9-4.1l-1.7-1.2c-51.7-37.1-107.4-81.4-108.8-94.5c-1.5-14.7,0.5-25.7,2-28.8c1.3,1.9,4.3,7.7,8.3,24.7
			c9.6,40.6,70.2,74.9,105.5,91.7l1.4,0.7l0.9-1c0.6-0.6,1.1-1.2,1.6-1.8l1.4-1.6l-2.2-1.1C484,570.7,424.9,537.4,416.1,499.8z"/>
		<path class="st3" d="M426.4,492.7c-7-24.9-14-36.6-22.8-37.7c-8.9-1.4-17,8.6-26.1,32.3c-12.3,31.8,85.5,104.9,115.8,126.5l1.4,1
			l1.1-0.9c0.6-0.5,1.2-1.1,1.8-1.6l1.4-1.3l-1.8-1.3c-60.5-43.4-122.1-97.7-113.6-119.9c10.6-27.5,17.4-29.6,20-29.2
			c1.8,0.4,8.5,3.8,16.7,32.7c8.1,29.3,42.4,59.8,101.9,90.6l1.5,0.8l0.9-1.1c0.2-0.3,0.5-0.6,0.7-0.8c0.2-0.3,0.5-0.6,0.7-0.9
			l1.2-1.5l-2-1.1C468,549.8,433.9,519.8,426.4,492.7z"/>
		<path class="st3" d="M436.7,485.6c-9.4-28.8-20.2-44-33.2-46.7c-13-2.5-26.6,8.1-41.6,32.4c-27.2,44,84.5,128.1,119.4,152.8
			l1.3,0.9l4.5-3.6l-1.9-1.4c-24.1-17.1-142.8-104.6-117.6-145.5c13.3-21.6,25.6-32,35.5-30.1c9.7,2,19.2,16.5,27.4,41.9
			c9.2,28.2,41.2,57.4,97.8,89.2l1.5,0.8l0.9-1.1c0.5-0.6,1-1.2,1.4-1.9l1-1.4l-1.8-1C476.3,540.1,445.4,512.1,436.7,485.6z"/>
		<path class="st3" d="M447,478.4c-12.6-33.9-27.8-53-45.1-56.8c-17.2-3.7-35.8,7.7-55.6,33.9c-19.7,26.1-3.9,65.9,45.8,115
			c30.9,30.5,66.4,56.2,76.5,63.3l1.3,0.9l1.1-0.8c0.6-0.5,1.3-0.9,1.9-1.4l1.7-1.3l-2-1.4c-27.2-19.2-160.9-117.5-120.8-170.7
			c18.4-24.3,35-35.1,49.5-32c14.6,3.2,28,20.8,39.8,52.4c13.4,35.8,59.8,67.3,93.5,87.8l1.7,1l1.4-2c0.3-0.4,0.6-0.8,0.8-1.2
			l0.9-1.4l-1.7-1C504.8,542.8,459.7,512.4,447,478.4z"/>
		<path class="st3" d="M457.3,471.3c-17.2-40.7-36.3-62.9-58.2-67.7c-21.2-4.7-44.2,7.5-68.4,36.3c-12.1,14.3-15.9,31.7-11.3,51.5
			c14.9,64.1,115.6,137.5,135.6,151.5l1.2,0.8l1.1-0.7c0.7-0.4,1.3-0.8,2.1-1.3l2-1.2l-2.2-1.5c-19.7-13.8-119-85.9-133.5-148.1
			c-4.2-18.2-0.8-34.1,10.3-47.2c22.4-26.6,43.2-38.3,61.7-34.7c0.2,0,0.5,0.1,0.7,0.1c19.4,4.3,36.7,25.1,53,63.5
			c14.3,33.8,55,63.7,88.8,86l1.7,1.1l1-1.4c0.4-0.6,0.8-1.2,1.2-1.9l0.8-1.3l-1.5-1C510.4,532.4,470.8,503.3,457.3,471.3z"/>
		<path class="st3" d="M467.6,464.2c-15.7-33-38.1-71.8-72.2-79.2l-1-0.2c-24.7-4.8-51.4,8.5-79.5,39.4c-16.3,18-21.9,39.5-16.6,64
			c15.5,71.3,120.9,148.3,141.9,163.1l1.1,0.8l1.1-0.6c0.7-0.4,1.5-0.8,2.2-1.2l2.2-1.2l-2.3-1.6c-20.7-14.4-124.8-90-139.9-159.6
			c-5-22.8,0.3-42.9,15.5-59.7c27-29.8,52.1-42.5,74.7-37.6c30.8,6.6,52,43.7,67,75.2c15.2,32,51,60.5,83.9,84l1.8,1.3l1-1.6
			c0.4-0.7,0.8-1.3,1.2-2l0.7-1.2l-1.3-1C516.9,522.3,482.1,494.7,467.6,464.2z"/>
		<path class="st3" d="M477.9,457l-0.4-0.7c-16.2-30.4-43.2-81.4-86.4-90.2l-0.6-0.1c-28.4-5.5-59.2,8.8-91.3,42.6
			C278.5,430.2,271,455.9,277,485c15.5,75.4,116.8,152,147.5,173.7l1,0.7l1.3-0.5c0.7-0.3,1.5-0.6,2.2-1l2.4-1.1l-2.4-1.7
			c-21.6-15.2-130.1-94.7-145.7-170.3c-5.6-27.4,1.4-51.7,21.1-72.2c31-32.5,60-46.3,86.3-40.9c39.7,8.1,65.7,57.2,81.2,86.5
			l0.4,0.7c16.4,30.9,50.7,59.9,78.7,81.7l1.9,1.5l2.7-4.9l-1.3-1C527,514.8,493.7,486.6,477.9,457z"/>
		<path class="st3" d="M488.2,449.9c-0.8-1.4-1.7-2.9-2.6-4.5l-2.2-3.8c-18.3-31.9-49-85.2-96.7-94.5c-32.2-6.2-66.9,9.2-103.2,45.8
			c-25.3,25.5-34.7,55.6-28,89.4c16,80.3,120.1,160.4,151.7,183l0.9,0.7l6.5-2.2l-2.7-1.9C380.7,639.6,277.5,560.9,261.9,482
			c-6.4-32.1,2.6-60.7,26.7-85c34.9-35.2,67.7-50.1,97.8-44.3c44.1,8.6,73.8,60.2,91.5,90.9c1.7,3,3.3,5.8,4.8,8.3
			c17.6,29.9,48.4,57.9,73.3,78.9l2,1.7l1-1.9c0.4-0.7,0.7-1.4,1-2.1l0.5-1.1l-1.1-0.9C535.2,506.1,505.3,478.9,488.2,449.9z"/>
		<path class="st3" d="M509.2,448.3c-42.5-84.1-90.1-109.5-122.6-116c-38.4-7.6-76.1,6.6-106.1,40.3
			c-35.5,39.8-47.5,83.2-35.8,129.1c20.3,79.3,106.6,144.7,142.8,169.1l0.8,0.5l0.9-0.2c1-0.2,2.1-0.4,3.1-0.7l3.5-0.9l-3.2-2.1
			c-28-18.7-121-86-141.6-166.3c-11.3-44.2,0.4-86.1,34.7-124.6c28.5-31.9,63.9-45.6,99.7-38.7l0.6,0.1
			c30.8,6.2,76.1,30.6,117.4,112.2c12.6,25,39,50.5,58.8,67.5l2.1,1.8l1-2.3c0.3-0.7,0.6-1.3,0.9-1.9l0.5-1.1l-1-0.9
			C546.6,496.6,521.3,472.1,509.2,448.3z"/>
		<path class="st3" d="M519.2,438c-17.6-34.3-36.1-59.8-58.3-80.1c-30-27.4-63.2-42.5-96.1-43.6c-35.8-1.2-70.6,14.3-97.9,43.4
			c-60.4,64.5-48.4,130.5-27.7,174.6c32,68.8,104.7,121.4,134.6,140.9l0.7,0.5l0.8-0.1c1.1-0.2,2.2-0.3,3.3-0.5l4-0.7L379,670
			c-29.7-19.1-102.1-71-133.9-139.3c-20-42.6-31.6-106.5,27-169c26.2-28,59.4-42.8,93.4-41.7c31.1,1,62.6,15.4,91.2,41.6
			c21.6,19.7,39.6,44.6,56.8,78.1c9.9,19.4,27.9,41.6,53.6,66l2.1,2l1-2.3c0.3-0.8,0.6-1.5,0.9-2.3l0.4-1l-0.9-0.8
			C545.9,477.8,528.7,456.5,519.2,438z"/>
		<path class="st3" d="M529.2,427.8c-19.6-37.9-38.9-63.4-64.6-85.2c-33.2-28.2-69.8-43.6-105.8-44.3c-38.9-0.9-76.3,15-105.4,44.7
			c-49.7,50.7-61.9,117.7-33.6,183.8C251,600,327.2,654.6,358.4,674.7l0.6,0.4l0.7,0c1.2-0.1,2.3-0.1,3.5-0.2l5.1-0.4l-4.3-2.7
			c-31.3-19.8-107.3-73.6-138.4-146.3c-16.1-37.7-33.3-110.9,32.8-178.3c28-28.6,63.9-43.9,101.1-43.1
			c34.3,0.8,69.2,15.5,101.1,42.5c25,21.2,43.8,46.1,62.9,83.1c9.7,18.7,25.8,40.1,48.1,63.5l2.2,2.3l1-2.6c0.3-0.8,0.6-1.7,0.8-2.5
			l0.3-0.9l-0.7-0.8C553.9,466.2,538.5,445.7,529.2,427.8z"/>
		<path class="st3" d="M539.2,417.6c-15.6-29.9-35-61.5-70.9-90.3c-92.3-74-180.8-45.8-228.5,0.9c-52.3,51.1-67,123.3-39.6,193.1
			c29,73.8,100.4,127.8,140.4,153.4l0.5,0.3l0.6,0c1.5,0.1,2.9,0.1,4.4,0.2l5.8,0.1l-5.1-3.2c-40.2-25.3-111.8-78.7-140.7-152.1
			c-26.7-67.8-12.3-138,38.6-187.7c45.9-44.9,131-72.1,219.7-1c34.8,27.9,53.8,58.8,69.1,88c9.5,18.2,23.7,38.4,42.3,59.8l2.4,2.8
			l0.9-3c0.3-0.9,0.5-1.8,0.7-2.6l-1.9-0.6l0,0l1.9,0.6l0.2-0.8l-0.6-0.7C561.8,454.2,548.3,434.9,539.2,417.6z"/>
		<path class="st3" d="M549.2,407.4c-19.4-36.6-39.9-66.9-77.2-95.3c-43-32.8-90.3-48.7-136.8-45.8c-40.5,2.5-79.2,19.3-109,47.2
			c-55.5,52.2-72.5,127.8-45.5,202.3C208,591,278.7,645.9,318.5,672l0.4,0.3l0.4,0.1c1.9,0.4,3.8,0.7,5.7,1l7.5,1.1l-6.5-4.1
			c-40.3-25.8-111.9-80.2-139.3-155.5c-26.3-72.6-9.8-146.2,44.3-197c49.4-46.4,141.2-74.7,237.2-1.5c36.3,27.7,56.3,57.2,75.2,93
			c9.2,17.4,21.3,35.9,36,54.8l2.6,3.3l0.8-3.6c0.2-1,0.4-2,0.6-3l0.1-0.7l-0.5-0.6C569.2,441.3,557.8,423.8,549.2,407.4z"/>
		<path class="st3" d="M559.2,397.2c-17.4-32.6-38.1-67.2-83.5-100.3c-46.3-33.9-97.3-50-147.3-46.7c-43.2,2.9-84.3,20.1-115.8,48.6
			c-69.2,62.6-72,150.4-51.4,211.6c23.3,69.5,81.9,121.7,126.9,153.3l0.4,0.3l0.3,0.1c2.5,0.9,5,1.7,7.6,2.5l10.6,3.3l-9.2-6.2
			c-46.5-31.5-106.9-83.8-130.5-154.2c-20.1-59.7-17.4-145.3,50.1-206.3c57.3-51.8,158.3-72.6,254.7-2c44.2,32.3,64.4,66.1,81.4,98
			c8.7,16.3,18.5,32.3,29.2,47.6l2.8,4l0.7-4.7c0.2-1,0.3-1.9,0.5-3l0.1-0.6l-0.4-0.5C576.4,427.4,567.3,412.4,559.2,397.2z"/>
		<path class="st3" d="M588.9,422.2l0-0.5l-0.3-0.5c-7.5-12.4-14-24.3-19.4-34.3c-19.2-35.7-40.5-70.6-89.8-105.4
			c-106-74.9-217.2-52.7-280.4,2.4c-73.2,63.9-76.7,158.9-57.3,220.9c13.6,43.9,42.2,85.8,84.9,124.3l0.5,0.4
			c6.5,5.1,13.2,9.8,20,14l2.1-2.6c-52-41.9-86.1-87.9-101.3-137c-18.9-60.5-15.6-153.3,55.9-215.7c61.4-53.6,169.3-75.1,272.2-2.5
			c47.9,33.8,68.8,68,87.6,102.9c5.5,10.2,12.9,23.7,21.4,37.7l3.1,5l0.5-5.3C588.7,424.9,588.8,423.6,588.9,422.2z"/>
		<path class="st3" d="M395.2,33.5c-3.9-1.1-8-1.9-12.3-2.2c21.6,11.6,58.7,28.9,71.1,33.6C443.3,54.8,410,37.4,395.2,33.5z"/>
	</g>
</g>
</svg>
