<svg id="Capa_1" data-name="Capa 1" xmlns="http://www.w3.org/2000/svg" viewBox="0 0 1158.02 780.99"><defs><style>.cls-1{fill:#09f;}.cls-1,.cls-2,.cls-3,.cls-4{stroke:#fff;stroke-miterlimit:10;}.cls-1,.cls-3,.cls-4{stroke-width:8px;}.cls-2,.cls-3{fill:none;}.cls-2{stroke-linecap:round;stroke-width:7px;}.cls-4{fill:#438dcb;}</style></defs><path class="cls-1" d="M312.6,704.9H167.3C71.9,689.7,5.2,605.8,8.9,519.4,13.2,419.7,110.7,334.5,222.5,351c-1.2-12.6-3.3-53.2,23.1-85,34.3-41.2,102.9-51.3,164.2-17.5C447.9,107.8,583.3,18.2,719.5,39,845.3,58.1,944.7,167,954.7,301.3c109.8-1.8,201,87.3,204,196.4,2.9,105.6-77.7,198-183.7,207.4H312.6Z" transform="translate(-4.75 -32.01)"/><ellipse class="cls-1" cx="579.05" cy="497.79" rx="274.7" ry="279.2"/><path class="cls-2" d="M366.9,398.8H409c13.2,0,24.7,10,27.6,24l40.1,190.6c2.9,14.1,14.4,24,27.6,24h220" transform="translate(-4.75 -32.01)"/><path class="cls-3" d="M471,448.8H722.8c20.7,0,34.5,23.3,26.3,43.9l-39.3,97.4c-4.5,11.3-14.9,18.7-26.3,18.7h-174a5.61,5.61,0,0,1-5.3-4.6Z" transform="translate(-4.75 -32.01)"/><ellipse class="cls-4" cx="524.35" cy="657.89" rx="26.1" ry="28.7"/><ellipse class="cls-4" cx="681.35" cy="657.89" rx="26.1" ry="28.7"/></svg>