<?xml version="1.0" encoding="utf-8"?>
<!-- Generator: Adobe Illustrator 25.4.1, SVG Export Plug-In . SVG Version: 6.00 Build 0)  -->
<svg version="1.1" id="Capa_1" xmlns="http://www.w3.org/2000/svg" xmlns:xlink="http://www.w3.org/1999/xlink" x="0px" y="0px"
	 viewBox="0 0 1167.6 862.9" style="enable-background:new 0 0 1167.6 862.9;" xml:space="preserve">
<style type="text/css">
	.st0{fill:#0099FF;stroke:#FFFFFF;stroke-width:8;stroke-miterlimit:10;}
	.st1{fill:none;stroke:#FFFFFF;stroke-width:7;stroke-linecap:round;stroke-miterlimit:10;}
	.st2{fill:none;stroke:#FFFFFF;stroke-width:8;stroke-miterlimit:10;}
	.st3{fill:#438DCB;stroke:#FFFFFF;stroke-width:8;stroke-miterlimit:10;}
</style>
<path class="st0" d="M400.7,638.4h-109c-71.6-11.1-121.7-72.6-118.9-135.9c3.2-73.1,76.4-135.5,160.3-123.4
	c-0.9-9.2-2.5-39,17.3-62.3c25.7-30.2,77.2-37.6,123.2-12.8C502.2,200.8,603.8,135.2,706,150.4c94.4,14,169,93.8,176.5,192.2
	c82.4-1.3,150.8,64,153.1,143.9c2.2,77.4-58.3,145.1-137.8,152c-32.4,0-64.8,0-97.3,0L400.7,638.4L400.7,638.4z"/>
<ellipse class="st0" cx="604.2" cy="510.1" rx="206.1" ry="204.6"/>
<g>
	<path class="st1" d="M441.4,414.1H473c9.9,0,18.5,7.3,20.7,17.6l30.1,139.7c2.2,10.3,10.8,17.6,20.7,17.6h165.1"/>
	<path class="st2" d="M519.5,450.7h188.9c15.5,0,25.9,17.1,19.7,32.2l-29.5,71.4c-3.4,8.3-11.2,13.7-19.7,13.7H548.4
		c-1.9,0-3.5-1.4-4-3.4L519.5,450.7z"/>
	<ellipse class="st3" cx="563.1" cy="627.4" rx="19.6" ry="21"/>
	<ellipse class="st3" cx="680.9" cy="627.4" rx="19.6" ry="21"/>
</g>
</svg>
